<svg preserveAspectRatio="none" overflow="visible" style="display: block;" width="32" height="32" viewBox="0 0 32 32" fill="none" xmlns="http://www.w3.org/2000/svg">
<g id="Component 1">
<path id="Vector" d="M8 12V2.66667H24V12" stroke="#A3BD07" stroke-width="2.66667" stroke-linecap="round" stroke-linejoin="round"/>
<path id="Vector_2" d="M8 24H5.33333C4.62609 24 3.94781 23.719 3.44771 23.219C2.94762 22.7189 2.66667 22.0406 2.66667 21.3333V14.6667C2.66667 13.9594 2.94762 13.2811 3.44771 12.781C3.94781 12.281 4.62609 12 5.33333 12H26.6667C27.3739 12 28.0522 12.281 28.5523 12.781C29.0524 13.2811 29.3333 13.9594 29.3333 14.6667V21.3333C29.3333 22.0406 29.0524 22.7189 28.5523 23.219C28.0522 23.719 27.3739 24 26.6667 24H24" stroke="#A3BD07" stroke-width="2.66667" stroke-linecap="round" stroke-linejoin="round"/>
<path id="Vector_3" d="M24 18.6667H8V29.3333H24V18.6667Z" stroke="#A3BD07" stroke-width="2.66667" stroke-linecap="round" stroke-linejoin="round"/>
</g>
</svg>
